<svg width="630.5462158203125px" height="285.52468261718747px" xmlns="http://www.w3.org/2000/svg" viewBox="-65.27310791015623 -67.76234130859373 630.5462158203125 285.52468261718747" style="background: none;" preserveAspectRatio="xMidYMid"><defs><linearGradient id="editing-shadow-gradient1" x1="0" x2="0" y1="0" y2="1"><stop offset="0" stop-color="#000000" stop-opacity="0"></stop><stop offset="0.2" stop-color="#000000" stop-opacity="0"></stop><stop offset="1" stop-color="#000000" stop-opacity="1"></stop></linearGradient><linearGradient id="editing-shadow-gradient2" x1="1.4510565162951536" x2="-0.45105651629515353" y1="0.8090169943749477" y2="0.19098300562505227"><stop offset="0" stop-color="#ffffff"></stop><stop offset="1" stop-color="#fec918"></stop></linearGradient><filter id="editing-shadow" x="-100%" y="-100%" width="300%" height="300%"><feGaussianBlur stdDeviation="3.44"></feGaussianBlur><feComposite operator="in" in2="SourceGraphic"></feComposite><feGaussianBlur stdDeviation="1.72"></feGaussianBlur></filter></defs><g transform="translate(250,75)"><g transform="translate(-32.7, 0.3)"><g transform="skewX(45)"><g filter="url(#editing-shadow)"><g transform="translate(-111.40390968322754, 52.39999771118164)"><path d="M98.50-88.78L98.50-88.78L98.50-88.78Q96.86-76.04 88.16-60.07L88.16-60.07L88.16-60.07Q79.46-44.11 67.06-30.00L67.06-30.00L67.06-30.00Q54.66-15.89 38.36-6.17L38.36-6.17L38.36-6.17Q22.06 3.56 6.99 3.56L6.99 3.56L6.99 3.56Q-2.33 3.56-2.33-8.91L-2.33-8.91L-2.33-8.91Q-2.33-17.40 2.06-29.18L2.06-29.18L2.06-29.18Q6.44-40.96 14.93-53.50L14.93-53.50L14.93-53.50Q23.43-66.03 34.39-76.72L34.39-76.72L34.39-76.72Q45.35-87.41 60.21-94.32L60.21-94.32L60.21-94.32Q75.08-101.24 90.42-101.24L90.42-101.24L90.42-101.24Q94.80-101.24 94.80-97.27L94.80-97.27L94.80-97.27Q94.80-89.74 83.43-77.95L83.43-77.95L83.43-77.95Q72.06-66.17 61.92-66.03L61.92-66.03L61.92-66.03Q59.46-66.58 59.46-67.61L59.46-67.61L59.46-67.61Q59.46-68.64 61.17-70.69L61.17-70.69L61.17-70.69Q62.88-72.75 63.64-72.75L63.64-72.75L63.64-72.75Q64.39-72.75 64.39-72.27L64.39-72.27L64.39-72.27Q64.39-71.79 63.84-71.24L63.84-71.24L63.84-71.24Q63.29-70.69 63.29-70.14L63.29-70.14L63.29-70.14Q63.29-69.87 63.84-69.87L63.84-69.87L63.84-69.87Q67.54-69.87 74.60-75.35L74.60-75.35L74.60-75.35Q81.65-80.83 87.27-87.54L87.27-87.54L87.27-87.54Q92.89-94.26 92.89-97.54L92.89-97.54L92.89-97.54Q92.89-99.60 90.42-99.60L90.42-99.60L90.42-99.60Q75.90-99.60 61.79-92.20L61.79-92.20L61.79-92.20Q47.68-84.80 37.33-73.57L37.33-73.57L37.33-73.57Q26.99-62.34 18.91-49.39L18.91-49.39L18.91-49.39Q10.82-36.44 6.71-24.93L6.71-24.93L6.71-24.93Q2.60-13.43 2.60-5.62L2.60-5.62L2.60-5.62Q2.60 2.19 7.67 2.19L7.67 2.19L7.67 2.19Q15.76 2.19 28.98-5.55L28.98-5.55L28.98-5.55Q42.20-13.29 55.55-25.14L55.55-25.14L55.55-25.14Q68.91-36.99 80.28-52.88L80.28-52.88L80.28-52.88Q91.65-68.77 95.49-83.30L95.49-83.30L95.49-83.30Q97.13-89.87 97.54-89.87L97.54-89.87L97.54-89.87Q98.50-89.87 98.50-88.78ZM98.23-15.07L106.72-20.41L107.82-19.18L107.82-19.18Q101.52-15.34 97.54-12.74L97.54-12.74L97.54-12.74Q93.57-10.14 91.52-10.14L91.52-10.14L91.52-10.14Q88.50-10.14 88.50-12.74L88.50-12.74L88.50-12.74Q88.50-14.66 90.63-20.34L90.63-20.34L90.63-20.34Q92.75-26.03 93.57-28.36L93.57-28.36L93.16-28.77L93.16-28.77Q92.61-28.77 91.93-28.22L91.93-28.22L91.93-28.22Q78.09-17.13 74.05-13.29L74.05-13.29L74.05-13.29Q70.01-9.45 66.24-5.07L66.24-5.07L66.24-5.07Q62.47-0.69 62.13-0.27L62.13-0.27L62.13-0.27Q61.79 0.14 61.65 0.27L61.65 0.27L61.65 0.27Q61.24 0.69 58.84 0.69L58.84 0.69L58.84 0.69Q56.44 0.69 56.44 0.27L56.44 0.27L56.44 0.27Q56.72-0.14 59.87-3.56L59.87-3.56L59.87-3.56Q67.54-11.92 73.71-19.59L73.71-19.59L69.73-17.26L69.73-17.26Q63.43-13.43 60.55-11.51L60.55-11.51L60.01-13.02L68.64-18.50L68.64-18.50Q73.30-21.51 76.65-24.80L76.65-24.80L76.65-24.80Q80.01-28.09 81.24-30.14L81.24-30.14L81.24-30.14Q82.47-32.20 83.43-33.57L83.43-33.57L83.43-33.57Q84.39-34.94 85.21-34.94L85.21-34.94L85.21-34.94Q86.04-34.94 87.82-33.98L87.82-33.98L87.82-33.98Q87.82-32.61 85.63-29.18L85.63-29.18L85.63-29.18Q83.43-25.76 81.24-23.02L81.24-23.02L79.05-20.41L79.05-20.41Q79.05-20.14 79.19-20.14L79.19-20.14L79.19-20.14Q79.60-20.14 80.15-20.62L80.15-20.62L80.15-20.62Q80.69-21.10 84.73-24.45L84.73-24.45L84.73-24.45Q88.78-27.81 91.79-30.21L91.79-30.21L91.79-30.21Q94.80-32.61 98.71-34.80L98.71-34.80L98.71-34.80Q102.61-36.99 104.39-36.99L104.39-36.99L104.39-36.99Q106.18-36.99 106.18-36.17L106.18-36.17L106.18-36.17Q106.18-35.07 99.46-31.51L99.46-31.51L99.46-31.51Q97.96-30.69 94.87-23.63L94.87-23.63L94.87-23.63Q91.79-16.58 91.79-13.29L91.79-13.29L91.79-13.29Q91.79-12.60 93.09-12.60L93.09-12.60L93.09-12.60Q94.39-12.60 98.23-15.07L98.23-15.07ZM139.19-12.60L144.81-16.30L144.95-14.52L144.95-14.52Q122.89 0.14 118.09 0.14L118.09 0.14L118.09 0.14Q117.27 0.14 117.27-0.82L117.27-0.82L117.27-0.82Q117.27-3.70 119.46-9.04L119.46-9.04L120.15-10.96L120.15-10.96Q120.15-11.23 119.67-11.23L119.67-11.23L119.67-11.23Q119.19-11.23 111.66-5.75L111.66-5.75L111.66-5.75Q104.26-0.27 102.00-0.27L102.00-0.27L102.00-0.27Q99.74-0.27 99.74-4.38L99.74-4.38L99.74-4.38Q99.74-15.76 112.68-26.58L112.68-26.58L112.68-26.58Q125.63-37.40 143.85-37.40L143.85-37.40L143.85-37.40Q145.49-37.40 145.49-36.03L145.49-36.03L145.49-36.03Q145.49-34.66 132.62-20.07L132.62-20.07L132.62-20.07Q119.74-5.48 119.74-2.47L119.74-2.47L119.74-2.47Q119.74-1.92 120.56-1.92L120.56-1.92L120.56-1.92Q121.38-1.92 127.55-5.48L127.55-5.48L127.55-5.48Q133.71-9.04 139.19-12.60L139.19-12.60ZM123.03-16.17L123.03-16.17L123.03-16.17Q125.36-17.95 132.07-25.62L132.07-25.62L132.07-25.62Q138.78-33.29 138.78-34.52L138.78-34.52L138.78-34.52Q138.78-35.07 137.69-35.07L137.69-35.07L137.69-35.07Q131.38-35.07 123.03-29.25L123.03-29.25L123.03-29.25Q114.67-23.43 108.85-16.03L108.85-16.03L108.85-16.03Q103.02-8.63 103.02-4.11L103.02-4.11L103.02-4.11Q103.02-3.29 103.85-3.29L103.85-3.29L103.85-3.29Q104.67-3.29 106.52-4.32L106.52-4.32L106.52-4.32Q108.37-5.34 111.04-7.19L111.04-7.19L111.04-7.19Q113.71-9.04 115.63-10.41L115.63-10.41L115.63-10.41Q122.20-15.34 123.03-16.17ZM164.54-24.11L164.54-24.11Q164.54-25.07 165.22-26.30L165.22-26.30L165.22-26.30Q165.91-27.54 166.59-27.54L166.59-27.54L166.59-27.54Q167.28-27.54 167.83-26.58L167.83-26.58L167.83-26.58Q175.50-32.61 175.50-35.48L175.50-35.48L175.50-35.48Q175.50-35.89 174.81-35.89L174.81-35.89L174.81-35.89Q170.43-35.89 162.76-29.73L162.76-29.73L162.76-29.73Q155.08-23.56 149.12-15.55L149.12-15.55L149.12-15.55Q143.17-7.54 143.17-2.88L143.17-2.88L143.17-2.88Q143.17-1.64 144.40-1.64L144.40-1.64L144.40-1.64Q149.47-1.64 164.40-10.96L164.40-10.96L172.62-16.30L172.76-14.52L172.76-14.52Q169.33-12.33 164.95-9.59L164.95-9.59L164.95-9.59Q149.06 0.27 142.89 0.27L142.89 0.27L142.89 0.27Q140.15 0.27 140.15-5.48L140.15-5.48L140.15-5.48Q140.15-11.23 145.77-18.84L145.77-18.84L145.77-18.84Q151.39-26.44 159.88-32.06L159.88-32.06L159.88-32.06Q168.37-37.68 175.36-37.68L175.36-37.68L175.36-37.68Q178.10-37.68 178.10-35.48L178.10-35.48L178.10-35.48Q178.10-32.47 173.37-27.54L173.37-27.54L173.37-27.54Q168.65-22.61 166.59-22.61L166.59-22.61L166.59-22.61Q164.54-22.61 164.54-24.11L164.54-24.11ZM246.60-90.15L246.60-90.15L246.60-90.15Q242.49-90.15 216.32-63.84L216.32-63.84L216.32-63.84Q190.16-37.54 176.59-18.77L176.59-18.77L176.59-18.77Q189.20-28.36 218.04-56.38L218.04-56.38L218.04-56.38Q246.87-84.39 246.87-89.74L246.87-89.74L246.87-89.74Q246.87-90.01 246.60-90.15ZM249.20-92.61L249.20-92.61L249.20-92.61Q250.44-92.61 250.44-91.11L250.44-91.11L250.44-91.11Q250.44-84.53 221.05-56.10L221.05-56.10L221.05-56.10Q191.66-27.67 174.40-15.62L174.40-15.62L174.40-15.62Q168.37-6.99 168.37-3.15L168.37-3.15L168.37-3.15Q168.37-1.92 168.92-1.92L168.92-1.92L168.92-1.92Q174.54-1.92 189.06-10.96L189.06-10.96L197.28-16.30L197.42-14.52L197.42-14.52Q193.99-12.33 189.61-9.59L189.61-9.59L189.61-9.59Q173.72 0.27 167.55 0.27L167.55 0.27L167.55 0.27Q165.91 0.27 165.91-2.33L165.91-2.33L165.91-2.33Q165.91-10.28 177.00-25.82L177.00-25.82L177.00-25.82Q188.10-41.37 202.42-55.96L202.42-55.96L202.42-55.96Q216.73-70.56 230.50-81.58L230.50-81.58L230.50-81.58Q244.27-92.61 249.20-92.61ZM227.28-35.21L227.28-35.21L227.28-35.21Q227.28-35.62 226.74-35.62L226.74-35.62L226.74-35.62Q223.04-35.62 215.23-29.18L215.23-29.18L215.23-29.18Q207.42-22.74 201.66-15.07L201.66-15.07L201.66-15.07Q208.51-17.26 217.90-24.93L217.90-24.93L217.90-24.93Q227.28-32.61 227.28-35.21ZM195.64-2.88L195.64-2.88L195.64-2.88Q195.64-1.10 197.01-1.10L197.01-1.10L197.01-1.10Q198.65-1.10 204.40-3.36L204.40-3.36L204.40-3.36Q210.16-5.62 213.86-7.81L213.86-7.81L227.28-16.30L227.42-14.52L227.42-14.52Q213.04-4.93 205.98-2.33L205.98-2.33L205.98-2.33Q198.92 0.27 196.60 0.27L196.60 0.27L196.60 0.27Q192.76 0.27 192.76-4.52L192.76-4.52L192.76-4.52Q192.76-10.96 197.42-17.40L197.42-17.40L197.42-17.40Q202.08-23.84 208.31-27.95L208.31-27.95L208.31-27.95Q214.54-32.06 220.36-34.66L220.36-34.66L220.36-34.66Q226.19-37.26 229.20-37.26L229.20-37.26L229.20-37.26Q232.22-37.26 232.22-35.21L232.22-35.21L232.22-35.21Q232.22-30.14 220.23-22.88L220.23-22.88L220.23-22.88Q208.24-15.62 200.29-13.29L200.29-13.29L200.29-13.29Q195.64-6.58 195.64-2.88Z" fill="url(#editing-shadow-gradient1)"></path></g></g></g></g><g><g transform="translate(-111.38442420959473, 52.39999771118164)"><path d="M98.50-88.78L98.50-88.78L98.50-88.78Q96.86-76.04 88.16-60.07L88.16-60.07L88.16-60.07Q79.46-44.11 67.06-30.00L67.06-30.00L67.06-30.00Q54.66-15.89 38.36-6.17L38.36-6.17L38.36-6.17Q22.06 3.56 6.99 3.56L6.99 3.56L6.99 3.56Q-2.33 3.56-2.33-8.91L-2.33-8.91L-2.33-8.91Q-2.33-17.40 2.06-29.18L2.06-29.18L2.06-29.18Q6.44-40.96 14.93-53.50L14.93-53.50L14.93-53.50Q23.43-66.03 34.39-76.72L34.39-76.72L34.39-76.72Q45.35-87.41 60.21-94.32L60.21-94.32L60.21-94.32Q75.08-101.24 90.42-101.24L90.42-101.24L90.42-101.24Q94.80-101.24 94.80-97.27L94.80-97.27L94.80-97.27Q94.80-89.74 83.43-77.95L83.43-77.95L83.43-77.95Q72.06-66.17 61.92-66.03L61.92-66.03L61.92-66.03Q59.46-66.58 59.46-67.61L59.46-67.61L59.46-67.61Q59.46-68.64 61.17-70.69L61.17-70.69L61.17-70.69Q62.88-72.75 63.64-72.75L63.64-72.75L63.64-72.75Q64.39-72.75 64.39-72.27L64.39-72.27L64.39-72.27Q64.39-71.79 63.84-71.24L63.84-71.24L63.84-71.24Q63.29-70.69 63.29-70.14L63.29-70.14L63.29-70.14Q63.29-69.87 63.84-69.87L63.84-69.87L63.84-69.87Q67.54-69.87 74.60-75.35L74.60-75.35L74.60-75.35Q81.65-80.83 87.27-87.54L87.27-87.54L87.27-87.54Q92.89-94.26 92.89-97.54L92.89-97.54L92.89-97.54Q92.89-99.60 90.42-99.60L90.42-99.60L90.42-99.60Q75.90-99.60 61.79-92.20L61.79-92.20L61.79-92.20Q47.68-84.80 37.33-73.57L37.33-73.57L37.33-73.57Q26.99-62.34 18.91-49.39L18.91-49.39L18.91-49.39Q10.82-36.44 6.71-24.93L6.71-24.93L6.71-24.93Q2.60-13.43 2.60-5.62L2.60-5.62L2.60-5.62Q2.60 2.19 7.67 2.19L7.67 2.19L7.67 2.19Q15.76 2.19 28.98-5.55L28.98-5.55L28.98-5.55Q42.20-13.29 55.55-25.14L55.55-25.14L55.55-25.14Q68.91-36.99 80.28-52.88L80.28-52.88L80.28-52.88Q91.65-68.77 95.49-83.30L95.49-83.30L95.49-83.30Q97.13-89.87 97.54-89.87L97.54-89.87L97.54-89.87Q98.50-89.87 98.50-88.78ZM98.23-15.07L106.72-20.41L107.82-19.18L107.82-19.18Q101.52-15.34 97.54-12.74L97.54-12.74L97.54-12.74Q93.57-10.14 91.52-10.14L91.52-10.14L91.52-10.14Q88.50-10.14 88.50-12.74L88.50-12.74L88.50-12.74Q88.50-14.66 90.63-20.34L90.63-20.34L90.63-20.34Q92.75-26.03 93.57-28.36L93.57-28.36L93.16-28.77L93.16-28.77Q92.61-28.77 91.93-28.22L91.93-28.22L91.93-28.22Q78.09-17.13 74.05-13.29L74.05-13.29L74.05-13.29Q70.01-9.45 66.24-5.07L66.24-5.07L66.24-5.07Q62.47-0.69 62.13-0.27L62.13-0.27L62.13-0.27Q61.79 0.14 61.65 0.27L61.65 0.27L61.65 0.27Q61.24 0.69 58.84 0.69L58.84 0.69L58.84 0.69Q56.44 0.69 56.44 0.27L56.44 0.27L56.44 0.27Q56.72-0.14 59.87-3.56L59.87-3.56L59.87-3.56Q67.54-11.92 73.71-19.59L73.71-19.59L69.73-17.26L69.73-17.26Q63.43-13.43 60.55-11.51L60.55-11.51L60.01-13.02L68.64-18.50L68.64-18.50Q73.30-21.51 76.65-24.80L76.65-24.80L76.65-24.80Q80.01-28.09 81.24-30.14L81.24-30.14L81.24-30.14Q82.47-32.20 83.43-33.57L83.43-33.57L83.43-33.57Q84.39-34.94 85.21-34.94L85.21-34.94L85.21-34.94Q86.04-34.94 87.82-33.98L87.82-33.98L87.82-33.98Q87.82-32.61 85.63-29.18L85.63-29.18L85.63-29.18Q83.43-25.76 81.24-23.02L81.24-23.02L79.05-20.41L79.05-20.41Q79.05-20.14 79.19-20.14L79.19-20.14L79.19-20.14Q79.60-20.14 80.15-20.62L80.15-20.62L80.15-20.62Q80.69-21.10 84.73-24.45L84.73-24.45L84.73-24.45Q88.78-27.81 91.79-30.21L91.79-30.21L91.79-30.21Q94.80-32.61 98.71-34.80L98.71-34.80L98.71-34.80Q102.61-36.99 104.39-36.99L104.39-36.99L104.39-36.99Q106.18-36.99 106.18-36.17L106.18-36.17L106.18-36.17Q106.18-35.07 99.46-31.51L99.46-31.51L99.46-31.51Q97.96-30.69 94.87-23.63L94.87-23.63L94.87-23.63Q91.79-16.58 91.79-13.29L91.79-13.29L91.79-13.29Q91.79-12.60 93.09-12.60L93.09-12.60L93.09-12.60Q94.39-12.60 98.23-15.07L98.23-15.07ZM139.19-12.60L144.81-16.30L144.95-14.52L144.95-14.52Q122.89 0.14 118.09 0.14L118.09 0.14L118.09 0.14Q117.27 0.14 117.27-0.82L117.27-0.82L117.27-0.82Q117.27-3.70 119.46-9.04L119.46-9.04L120.15-10.96L120.15-10.96Q120.15-11.23 119.67-11.23L119.67-11.23L119.67-11.23Q119.19-11.23 111.66-5.75L111.66-5.75L111.66-5.75Q104.26-0.27 102.00-0.27L102.00-0.27L102.00-0.27Q99.74-0.27 99.74-4.38L99.74-4.38L99.74-4.38Q99.74-15.76 112.68-26.58L112.68-26.58L112.68-26.58Q125.63-37.40 143.85-37.40L143.85-37.40L143.85-37.40Q145.49-37.40 145.49-36.03L145.49-36.03L145.49-36.03Q145.49-34.66 132.62-20.07L132.62-20.07L132.62-20.07Q119.74-5.48 119.74-2.47L119.74-2.47L119.74-2.47Q119.74-1.92 120.56-1.92L120.56-1.92L120.56-1.92Q121.38-1.92 127.55-5.48L127.55-5.48L127.55-5.48Q133.71-9.04 139.19-12.60L139.19-12.60ZM123.03-16.17L123.03-16.17L123.03-16.17Q125.36-17.95 132.07-25.62L132.07-25.62L132.07-25.62Q138.78-33.29 138.78-34.52L138.78-34.52L138.78-34.52Q138.78-35.07 137.69-35.07L137.69-35.07L137.69-35.07Q131.38-35.07 123.03-29.25L123.03-29.25L123.03-29.25Q114.67-23.43 108.85-16.03L108.85-16.03L108.85-16.03Q103.02-8.63 103.02-4.11L103.02-4.11L103.02-4.11Q103.02-3.29 103.85-3.29L103.85-3.29L103.85-3.29Q104.67-3.29 106.52-4.32L106.52-4.32L106.52-4.32Q108.37-5.34 111.04-7.19L111.04-7.19L111.04-7.19Q113.71-9.04 115.63-10.41L115.63-10.41L115.63-10.41Q122.20-15.34 123.03-16.17ZM164.54-24.11L164.54-24.11Q164.54-25.07 165.22-26.30L165.22-26.30L165.22-26.30Q165.91-27.54 166.59-27.54L166.59-27.54L166.59-27.54Q167.28-27.54 167.83-26.58L167.83-26.58L167.83-26.58Q175.50-32.61 175.50-35.48L175.50-35.48L175.50-35.48Q175.50-35.89 174.81-35.89L174.81-35.89L174.81-35.89Q170.43-35.89 162.76-29.73L162.76-29.73L162.76-29.73Q155.08-23.56 149.12-15.55L149.12-15.55L149.12-15.55Q143.17-7.54 143.17-2.88L143.17-2.88L143.17-2.88Q143.17-1.64 144.40-1.64L144.40-1.64L144.40-1.64Q149.47-1.64 164.40-10.96L164.40-10.96L172.62-16.30L172.76-14.52L172.76-14.52Q169.33-12.33 164.95-9.59L164.95-9.59L164.95-9.59Q149.06 0.27 142.89 0.27L142.89 0.27L142.89 0.27Q140.15 0.27 140.15-5.48L140.15-5.48L140.15-5.48Q140.15-11.23 145.77-18.84L145.77-18.84L145.77-18.84Q151.39-26.44 159.88-32.06L159.88-32.06L159.88-32.06Q168.37-37.68 175.36-37.68L175.36-37.68L175.36-37.68Q178.10-37.68 178.10-35.48L178.10-35.48L178.10-35.48Q178.10-32.47 173.37-27.54L173.37-27.54L173.37-27.54Q168.65-22.61 166.59-22.61L166.59-22.61L166.59-22.61Q164.54-22.61 164.54-24.11L164.54-24.11ZM246.60-90.15L246.60-90.15L246.60-90.15Q242.49-90.15 216.32-63.84L216.32-63.84L216.32-63.84Q190.16-37.54 176.59-18.77L176.59-18.77L176.59-18.77Q189.20-28.36 218.04-56.38L218.04-56.38L218.04-56.38Q246.87-84.39 246.87-89.74L246.87-89.74L246.87-89.74Q246.87-90.01 246.60-90.15ZM249.20-92.61L249.20-92.61L249.20-92.61Q250.44-92.61 250.44-91.11L250.44-91.11L250.44-91.11Q250.44-84.53 221.05-56.10L221.05-56.10L221.05-56.10Q191.66-27.67 174.40-15.62L174.40-15.62L174.40-15.62Q168.37-6.99 168.37-3.15L168.37-3.15L168.37-3.15Q168.37-1.92 168.92-1.92L168.92-1.92L168.92-1.92Q174.54-1.92 189.06-10.96L189.06-10.96L197.28-16.30L197.42-14.52L197.42-14.52Q193.99-12.33 189.61-9.59L189.61-9.59L189.61-9.59Q173.72 0.27 167.55 0.27L167.55 0.27L167.55 0.27Q165.91 0.27 165.91-2.33L165.91-2.33L165.91-2.33Q165.91-10.28 177.00-25.82L177.00-25.82L177.00-25.82Q188.10-41.37 202.42-55.96L202.42-55.96L202.42-55.96Q216.73-70.56 230.50-81.58L230.50-81.58L230.50-81.58Q244.27-92.61 249.20-92.61ZM227.28-35.21L227.28-35.21L227.28-35.21Q227.28-35.62 226.74-35.62L226.74-35.62L226.74-35.62Q223.04-35.62 215.23-29.18L215.23-29.18L215.23-29.18Q207.42-22.74 201.66-15.07L201.66-15.07L201.66-15.07Q208.51-17.26 217.90-24.93L217.90-24.93L217.90-24.93Q227.28-32.61 227.28-35.21ZM195.64-2.88L195.64-2.88L195.64-2.88Q195.64-1.10 197.01-1.10L197.01-1.10L197.01-1.10Q198.65-1.10 204.40-3.36L204.40-3.36L204.40-3.36Q210.16-5.62 213.86-7.81L213.86-7.81L227.28-16.30L227.42-14.52L227.42-14.52Q213.04-4.93 205.98-2.33L205.98-2.33L205.98-2.33Q198.92 0.27 196.60 0.27L196.60 0.27L196.60 0.27Q192.76 0.27 192.76-4.52L192.76-4.52L192.76-4.52Q192.76-10.96 197.42-17.40L197.42-17.40L197.42-17.40Q202.08-23.84 208.31-27.95L208.31-27.95L208.31-27.95Q214.54-32.06 220.36-34.66L220.36-34.66L220.36-34.66Q226.19-37.26 229.20-37.26L229.20-37.26L229.20-37.26Q232.22-37.26 232.22-35.21L232.22-35.21L232.22-35.21Q232.22-30.14 220.23-22.88L220.23-22.88L220.23-22.88Q208.24-15.62 200.29-13.29L200.29-13.29L200.29-13.29Q195.64-6.58 195.64-2.88Z" fill="url(#editing-shadow-gradient2)"></path></g></g></g><style>text {
  font-size: 64px;
  font-family: Arial Black;
  dominant-baseline: central;
  text-anchor: middle;
}</style></svg>