<svg width="335.76875px" height="131.6px" xmlns="http://www.w3.org/2000/svg" viewBox="82.115625 9.200000000000003 335.76875 131.6" style="background: none;" preserveAspectRatio="xMidYMid"><defs><linearGradient id="editing-glowing-gradient" x1="0.8146601955249186" x2="0.18533980447508142" y1="0.8885729807284856" y2="0.11142701927151444"><stop offset="0" stop-color="#feeb54"></stop><stop offset="1" stop-color="#feeb54"></stop></linearGradient><filter id="editing-glowing" x="-100%" y="-100%" width="300%" height="300%"><feGaussianBlur in="SourceGraphic" result="blur" stdDeviation="10"></feGaussianBlur><feMerge><feMergeNode in="blur"></feMergeNode><feMergeNode in="SourceGraphic"></feMergeNode></feMerge></filter></defs><g filter="url(#editing-glowing)"><g transform="translate(133.46997714042664, 99.03000068664551)"><path d="M10.59-4.09L10.59-4.09L10.59-4.09Q10.59-3.25 10.27-2.52L10.27-2.52L10.27-2.52Q9.94-1.78 9.39-1.23L9.39-1.23L9.39-1.23Q8.84-0.69 8.11-0.38L8.11-0.38L8.11-0.38Q7.38-0.06 6.56-0.06L6.56-0.06L6.56-0.06Q5.72-0.06 4.98-0.38L4.98-0.38L4.98-0.38Q4.25-0.69 3.70-1.23L3.70-1.23L3.70-1.23Q3.16-1.78 2.84-2.52L2.84-2.52L2.84-2.52Q2.53-3.25 2.53-4.09L2.53-4.09L2.53-4.09Q2.53-4.91 2.84-5.64L2.84-5.64L2.84-5.64Q3.16-6.38 3.70-6.92L3.70-6.92L3.70-6.92Q4.25-7.47 4.98-7.80L4.98-7.80L4.98-7.80Q5.72-8.13 6.56-8.13L6.56-8.13L6.56-8.13Q7.38-8.13 8.11-7.80L8.11-7.80L8.11-7.80Q8.84-7.47 9.39-6.92L9.39-6.92L9.39-6.92Q9.94-6.38 10.27-5.64L10.27-5.64L10.27-5.64Q10.59-4.91 10.59-4.09ZM53.69-22.41L53.69-11.41L53.69-11.41Q53.69-9.31 53.16-7.64L53.16-7.64L53.16-7.64Q52.63-5.97 51.75-4.70L51.75-4.70L51.75-4.70Q50.88-3.44 49.72-2.55L49.72-2.55L49.72-2.55Q48.56-1.66 47.30-1.09L47.30-1.09L47.30-1.09Q46.03-0.53 44.73-0.27L44.73-0.27L44.73-0.27Q43.44 0 42.28 0L42.28 0L27.63 0L27.63 0Q25.94 0 23.94-0.59L23.94-0.59L23.94-0.59Q21.94-1.19 20.23-2.55L20.23-2.55L20.23-2.55Q18.53-3.91 17.39-6.08L17.39-6.08L17.39-6.08Q16.25-8.25 16.25-11.41L16.25-11.41L16.25-22.41L16.25-22.41Q16.25-25.53 17.39-27.70L17.39-27.70L17.39-27.70Q18.53-29.88 20.23-31.23L20.23-31.23L20.23-31.23Q21.94-32.59 23.94-33.19L23.94-33.19L23.94-33.19Q25.94-33.78 27.63-33.78L27.63-33.78L42.28-33.78L42.28-33.78Q45.41-33.78 47.59-32.66L47.59-32.66L47.59-32.66Q49.78-31.53 51.13-29.83L51.13-29.83L51.13-29.83Q52.47-28.13 53.08-26.13L53.08-26.13L53.08-26.13Q53.69-24.13 53.69-22.41L53.69-22.41ZM45.56-11.41L45.56-22.34L45.56-22.34Q45.56-24.03 44.72-24.84L44.72-24.84L44.72-24.84Q43.88-25.66 42.28-25.66L42.28-25.66L27.69-25.66L27.69-25.66Q26.06-25.66 25.22-24.83L25.22-24.83L25.22-24.83Q24.38-24 24.38-22.41L24.38-22.41L24.38-11.41L24.38-11.41Q24.38-9.81 25.22-8.97L25.22-8.97L25.22-8.97Q26.06-8.13 27.69-8.13L27.69-8.13L42.28-8.13L42.28-8.13Q43.94-8.13 44.75-8.97L44.75-8.97L44.75-8.97Q45.56-9.81 45.56-11.41L45.56-11.41ZM90.16-33.78L90.16-25.66L71.88-25.66L71.88-25.66Q70.22-25.66 69.38-24.83L69.38-24.83L69.38-24.83Q68.53-24 68.53-22.41L68.53-22.41L68.53 0L60.41 0L60.41-22.41L60.41-22.41Q60.41-24.50 60.94-26.16L60.94-26.16L60.94-26.16Q61.47-27.81 62.36-29.08L62.36-29.08L62.36-29.08Q63.25-30.34 64.41-31.23L64.41-31.23L64.41-31.23Q65.56-32.13 66.83-32.69L66.83-32.69L66.83-32.69Q68.09-33.25 69.39-33.52L69.39-33.52L69.39-33.52Q70.69-33.78 71.81-33.78L71.81-33.78L90.16-33.78ZM127.75-22.59L127.75-11.19L127.75-11.19Q127.75-9.50 127.16-7.55L127.16-7.55L127.16-7.55Q126.56-5.59 125.23-3.92L125.23-3.92L125.23-3.92Q123.91-2.25 121.77-1.13L121.77-1.13L121.77-1.13Q119.63 0 116.56 0L116.56 0L101.91 0L101.91 0Q100.22 0 98.27-0.59L98.27-0.59L98.27-0.59Q96.31-1.19 94.64-2.52L94.64-2.52L94.64-2.52Q92.97-3.84 91.84-5.98L91.84-5.98L91.84-5.98Q90.72-8.13 90.72-11.19L90.72-11.19L90.72-11.19Q90.72-12.88 91.31-14.84L91.31-14.84L91.31-14.84Q91.91-16.81 93.23-18.48L93.23-18.48L93.23-18.48Q94.56-20.16 96.70-21.28L96.70-21.28L96.70-21.28Q98.84-22.41 101.91-22.41L101.91-22.41L116.56-22.41L116.56-14.66L101.91-14.66L101.91-14.66Q100.25-14.66 99.34-13.64L99.34-13.64L99.34-13.64Q98.44-12.63 98.44-11.13L98.44-11.13L98.44-11.13Q98.44-9.53 99.48-8.64L99.48-8.64L99.48-8.64Q100.53-7.75 101.97-7.75L101.97-7.75L116.56-7.75L116.56-7.75Q118.22-7.75 119.13-8.75L119.13-8.75L119.13-8.75Q120.03-9.75 120.03-11.25L120.03-11.25L120.03-22.59L120.03-22.59Q120.03-24.19 119.05-25.13L119.05-25.13L119.05-25.13Q118.06-26.06 116.56-26.06L116.56-26.06L98.72-26.06L98.72-33.78L116.56-33.78L116.56-33.78Q118.25-33.78 120.20-33.19L120.20-33.19L120.20-33.19Q122.16-32.59 123.83-31.27L123.83-31.27L123.83-31.27Q125.50-29.94 126.63-27.80L126.63-27.80L126.63-27.80Q127.75-25.66 127.75-22.59L127.75-22.59ZM167.41-8.13L167.41 0L145.38 0L145.38 0Q143.69 0 141.69-0.59L141.69-0.59L141.69-0.59Q139.69-1.19 137.98-2.55L137.98-2.55L137.98-2.55Q136.28-3.91 135.14-6.08L135.14-6.08L135.14-6.08Q134-8.25 134-11.41L134-11.41L134-22.41L134-22.41Q134-23.56 134.27-24.84L134.27-24.84L134.27-24.84Q134.53-26.13 135.09-27.39L135.09-27.39L135.09-27.39Q135.66-28.66 136.55-29.81L136.55-29.81L136.55-29.81Q137.44-30.97 138.70-31.84L138.70-31.84L138.70-31.84Q139.97-32.72 141.63-33.25L141.63-33.25L141.63-33.25Q143.28-33.78 145.38-33.78L145.38-33.78L167.41-33.78L167.41-25.66L145.38-25.66L145.38-25.66Q143.78-25.66 142.95-24.84L142.95-24.84L142.95-24.84Q142.13-24.03 142.13-22.34L142.13-22.34L142.13-11.41L142.13-11.41Q142.13-9.81 142.97-8.97L142.97-8.97L142.97-8.97Q143.81-8.13 145.44-8.13L145.44-8.13L167.41-8.13ZM188.97-8.13L188.97 0L185.34 0L185.34 0Q183.59 0 181.61-0.59L181.61-0.59L181.61-0.59Q179.63-1.19 177.91-2.55L177.91-2.55L177.91-2.55Q176.19-3.91 175.06-6.08L175.06-6.08L175.06-6.08Q173.94-8.25 173.94-11.41L173.94-11.41L173.94-48.06L182.06-48.06L182.06-11.41L182.06-11.41Q182.06-9.91 183-9.02L183-9.02L183-9.02Q183.94-8.13 185.34-8.13L185.34-8.13L188.97-8.13ZM230.53-22.59L230.53-22.59L230.53-22.59Q230.53-20.91 229.94-18.95L229.94-18.95L229.94-18.95Q229.34-17 228.02-15.33L228.02-15.33L228.02-15.33Q226.69-13.66 224.55-12.53L224.55-12.53L224.55-12.53Q222.41-11.41 219.34-11.41L219.34-11.41L204.69-11.41L204.69-19.13L219.34-19.13L219.34-19.13Q221-19.13 221.91-20.14L221.91-20.14L221.91-20.14Q222.81-21.16 222.81-22.66L222.81-22.66L222.81-22.66Q222.81-24.25 221.80-25.16L221.80-25.16L221.80-25.16Q220.78-26.06 219.34-26.06L219.34-26.06L204.69-26.06L204.69-26.06Q203.03-26.06 202.13-25.05L202.13-25.05L202.13-25.05Q201.22-24.03 201.22-22.53L201.22-22.53L201.22-11.19L201.22-11.19Q201.22-9.56 202.23-8.66L202.23-8.66L202.23-8.66Q203.25-7.75 204.75-7.75L204.75-7.75L219.34-7.75L219.34 0L204.69 0L204.69 0Q203 0 201.05-0.59L201.05-0.59L201.05-0.59Q199.09-1.19 197.42-2.52L197.42-2.52L197.42-2.52Q195.75-3.84 194.63-5.98L194.63-5.98L194.63-5.98Q193.50-8.13 193.50-11.19L193.50-11.19L193.50-22.59L193.50-22.59Q193.50-24.28 194.09-26.23L194.09-26.23L194.09-26.23Q194.69-28.19 196.02-29.86L196.02-29.86L196.02-29.86Q197.34-31.53 199.48-32.66L199.48-32.66L199.48-32.66Q201.63-33.78 204.69-33.78L204.69-33.78L219.34-33.78L219.34-33.78Q221.03-33.78 222.98-33.19L222.98-33.19L222.98-33.19Q224.94-32.59 226.61-31.27L226.61-31.27L226.61-31.27Q228.28-29.94 229.41-27.80L229.41-27.80L229.41-27.80Q230.53-25.66 230.53-22.59Z" fill="url(#editing-glowing-gradient)"></path></g></g><style>text {
  font-size: 64px;
  font-family: Arial Black;
  dominant-baseline: central;
  text-anchor: middle;
}</style></svg>